<svg width="18" height="18" viewBox="0 0 18 18" fill="none" xmlns="http://www.w3.org/2000/svg">
<path d="M16.4403 8.7C14.9253 5.1825 12.0753 3 9.00029 3C5.92529 3 3.07529 5.1825 1.56029 8.7C1.519 8.79462 1.49768 8.89676 1.49768 9C1.49768 9.10324 1.519 9.20537 1.56029 9.3C3.07529 12.8175 5.92529 15 9.00029 15C12.0753 15 14.9253 12.8175 16.4403 9.3C16.4816 9.20537 16.5029 9.10324 16.5029 9C16.5029 8.89676 16.4816 8.79462 16.4403 8.7ZM9.00029 13.5C6.62279 13.5 4.37279 11.7825 3.07529 9C4.37279 6.2175 6.62279 4.5 9.00029 4.5C11.3778 4.5 13.6278 6.2175 14.9253 9C13.6278 11.7825 11.3778 13.5 9.00029 13.5ZM9.00029 6C8.40695 6 7.82693 6.17595 7.33358 6.50559C6.84024 6.83524 6.45572 7.30377 6.22866 7.85195C6.00159 8.40013 5.94218 9.00333 6.05794 9.58527C6.17369 10.1672 6.45942 10.7018 6.87897 11.1213C7.29853 11.5409 7.83308 11.8266 8.41502 11.9424C8.99697 12.0581 9.60017 11.9987 10.1483 11.7716C10.6965 11.5446 11.1651 11.1601 11.4947 10.6667C11.8243 10.1734 12.0003 9.59334 12.0003 9C12.0003 8.20435 11.6842 7.44129 11.1216 6.87868C10.559 6.31607 9.79594 6 9.00029 6ZM9.00029 10.5C8.70362 10.5 8.41361 10.412 8.16694 10.2472C7.92027 10.0824 7.72801 9.84811 7.61448 9.57402C7.50094 9.29994 7.47124 8.99834 7.52912 8.70736C7.58699 8.41639 7.72986 8.14912 7.93963 7.93934C8.14941 7.72956 8.41669 7.5867 8.70766 7.52882C8.99863 7.47094 9.30023 7.50065 9.57432 7.61418C9.84841 7.72771 10.0827 7.91997 10.2475 8.16664C10.4123 8.41332 10.5003 8.70333 10.5003 9C10.5003 9.39782 10.3423 9.77935 10.061 10.0607C9.77965 10.342 9.39812 10.5 9.00029 10.5Z" fill="#5D5A6F"/>
</svg>
