<svg width="190" height="190" viewBox="0 0 190 190" fill="none" xmlns="http://www.w3.org/2000/svg">
<g filter="url(#filter0_d_1_1633)">
<rect x="70" y="45" width="50" height="50" rx="5" fill="white"/>
</g>
<g clip-path="url(#clip0_1_1633)">
<path d="M95 55H80V59.3945L96.7578 62.9102L95 55Z" fill="#A1A1A1"/>
<path d="M95 55H99.3945V62.0312H95V55Z" fill="#828282"/>
<path d="M96.7578 59.3945H80V63.7891L96.7578 68.1836V59.3945Z" fill="#636363"/>
<path d="M95 67.3047L110 63.7891V55H99.3945L95 59.3945V67.3047Z" fill="#434343"/>
<path d="M110 63.7891H95L87.9688 74.3945L95 85H110V63.7891Z" fill="#0FDBFF"/>
<path d="M80 63.7891H95V85H80V63.7891Z" fill="#80EEFF"/>
<path d="M83.5156 79.7266H85.2734V77.0312H90V69.0625H83.5156V79.7266ZM85.2734 70.8203H88.2422V75.2734H85.2734V70.8203Z" fill="white"/>
<path d="M100 69.0625V79.7266H101.758V77.0312H106.484V69.0625H100ZM104.727 75.2734H101.758V70.8203H104.727V75.2734Z" fill="#C2F7FF"/>
<path d="M96.4844 69.0625V73.5156H95L94.1211 74.3652L95 75.2734H96.4844V79.7266H98.2422V69.0625H96.4844Z" fill="#C2F7FF"/>
<path d="M93.5157 73.5156V69.0625H91.7578V79.7266H93.5157V75.2734H95V73.5156H93.5157Z" fill="white"/>
</g>
<defs>
<filter id="filter0_d_1_1633" x="0" y="0" width="190" height="190" filterUnits="userSpaceOnUse" color-interpolation-filters="sRGB">
<feFlood flood-opacity="0" result="BackgroundImageFix"/>
<feColorMatrix in="SourceAlpha" type="matrix" values="0 0 0 0 0 0 0 0 0 0 0 0 0 0 0 0 0 0 127 0" result="hardAlpha"/>
<feOffset dy="25"/>
<feGaussianBlur stdDeviation="35"/>
<feColorMatrix type="matrix" values="0 0 0 0 0.0392157 0 0 0 0 0.0117647 0 0 0 0 0.235294 0 0 0 0.15 0"/>
<feBlend mode="normal" in2="BackgroundImageFix" result="effect1_dropShadow_1_1633"/>
<feBlend mode="normal" in="SourceGraphic" in2="effect1_dropShadow_1_1633" result="shape"/>
</filter>
<clipPath id="clip0_1_1633">
<rect width="30" height="30" fill="white" transform="translate(80 55)"/>
</clipPath>
</defs>
</svg>
