<svg width="190" height="190" viewBox="0 0 190 190" fill="none" xmlns="http://www.w3.org/2000/svg">
<g filter="url(#filter0_d_1_1647)">
<rect x="70" y="45" width="50" height="50" rx="5" fill="white"/>
</g>
<g clip-path="url(#clip0_1_1647)">
<path d="M94.8514 60.5589C93.4652 61.5338 91.8941 62.6389 91.0523 64.4671C89.5902 67.6566 94.0442 71.1358 94.2346 71.2823C94.2789 71.3163 94.3318 71.3333 94.3846 71.3333C94.4407 71.3333 94.4968 71.3142 94.5424 71.276C94.6308 71.202 94.6559 71.0764 94.6028 70.9741C94.5867 70.943 92.9879 67.8376 93.0473 65.6097C93.0684 64.8337 94.1543 63.9535 95.3039 63.0215C96.3568 62.1679 97.5504 61.2005 98.2487 60.0688C99.7818 57.5776 98.0779 55.128 98.0604 55.1035C97.9928 55.0085 97.8679 54.9741 97.761 55.0209C97.6543 55.068 97.5952 55.1834 97.6196 55.2974C97.623 55.3137 97.9544 56.9336 97.0324 58.6025C96.6526 59.2922 95.8179 59.8791 94.8514 60.5589Z" fill="#DB380E"/>
<path d="M100.692 61.6576C100.789 61.584 100.818 61.4496 100.759 61.3424C100.7 61.2352 100.571 61.1879 100.456 61.2313C100.221 61.3209 94.6898 63.4529 94.6898 66.029C94.6898 67.8048 95.4484 68.7429 96.0023 69.428C96.2195 69.6967 96.4071 69.9287 96.4689 70.1268C96.6429 70.6977 96.2307 71.7296 96.0573 72.079C96.0073 72.1795 96.0318 72.3012 96.1168 72.3746C96.1627 72.4142 96.2201 72.4344 96.2775 72.4344C96.3264 72.4344 96.3755 72.4199 96.4179 72.3903C96.513 72.3242 98.7422 70.7482 98.3424 68.8493C98.1934 68.1276 97.8388 67.6002 97.5258 67.1349C97.041 66.4139 96.6909 65.8931 97.2221 64.9312C97.8445 63.8092 100.663 61.6789 100.692 61.6576Z" fill="#DB380E"/>
<path d="M86.2941 72.4749C86.1993 72.7588 86.244 73.0404 86.4234 73.2895C87.023 74.122 89.1468 74.5803 92.404 74.5803C92.4041 74.5803 92.4042 74.5803 92.4044 74.5803C92.8457 74.5803 93.3116 74.5716 93.7889 74.5545C98.9964 74.3681 100.928 72.7458 101.008 72.6768C101.094 72.6017 101.118 72.4765 101.064 72.3752C101.01 72.2741 100.893 72.2232 100.782 72.2538C98.9479 72.7546 95.5233 72.9324 93.1479 72.9324C90.4899 72.9324 89.1362 72.7409 88.8048 72.5995C88.9749 72.366 90.0237 71.949 91.3234 71.6934C91.4476 71.669 91.533 71.5543 91.5206 71.4283C91.5083 71.3023 91.4025 71.2062 91.2759 71.2062C90.5141 71.2062 86.6934 71.2674 86.2941 72.4749Z" fill="#73A1FB"/>
<path d="M103.72 70.8041C102.645 70.8041 101.627 71.3424 101.584 71.3652C101.485 71.4184 101.434 71.5323 101.462 71.6418C101.489 71.7511 101.587 71.8279 101.7 71.828C101.723 71.828 103.991 71.8466 104.196 73.1426C104.378 74.2607 102.05 76.0723 101.138 76.6761C101.039 76.7413 101.001 76.8673 101.047 76.9762C101.086 77.069 101.176 77.127 101.273 77.127C101.29 77.127 101.308 77.1253 101.325 77.1216C101.541 77.0753 106.622 75.9557 106.085 72.9975C105.757 71.1846 104.618 70.8041 103.72 70.8041Z" fill="#73A1FB"/>
<path d="M100.235 76.3141C100.253 76.2193 100.214 76.1229 100.135 76.0676L98.9164 75.2143C98.857 75.1726 98.7819 75.1596 98.7122 75.178C98.6995 75.1813 97.4255 75.5162 95.576 75.7216C94.8419 75.8039 94.0197 75.8474 93.1981 75.8474C91.349 75.8474 90.14 75.6301 89.9639 75.4707C89.9406 75.426 89.948 75.4056 89.9521 75.3943C89.9841 75.3054 90.1556 75.1997 90.2661 75.1578C90.3881 75.1126 90.4539 74.9801 90.416 74.8557C90.3781 74.731 90.2497 74.6577 90.123 74.6881C88.901 74.983 88.3035 75.3954 88.3469 75.9138C88.4242 76.8329 90.553 77.3046 92.3527 77.4293C92.6115 77.447 92.8914 77.456 93.1845 77.456C93.1846 77.456 93.1848 77.456 93.1849 77.456C96.1776 77.456 100.014 76.517 100.052 76.5075C100.146 76.4846 100.217 76.409 100.235 76.3141Z" fill="#73A1FB"/>
<path d="M91.0509 78.2865C91.1432 78.2265 91.1841 78.1124 91.1514 78.0074C91.1187 77.9023 91.0205 77.8333 90.9101 77.8347C90.7463 77.8391 89.3076 77.904 89.2069 78.82C89.1764 79.0938 89.2548 79.3439 89.44 79.5633C89.9566 80.1755 91.351 80.5394 93.7022 80.6757C93.9803 80.6924 94.2629 80.7008 94.5421 80.7008C97.5313 80.7008 99.5444 79.7648 99.6287 79.725C99.7105 79.6863 99.7644 79.606 99.7692 79.5158C99.774 79.4255 99.7289 79.3399 99.6518 79.2927L98.1123 78.3529C98.0588 78.3203 97.9949 78.3095 97.934 78.322C97.9242 78.3241 96.9467 78.5268 95.4715 78.7271C95.1924 78.765 94.8428 78.7843 94.4326 78.7843C92.959 78.7843 91.3199 78.5436 91.0055 78.3859C91.001 78.3565 91.0068 78.3191 91.0509 78.2865Z" fill="#73A1FB"/>
<path d="M93.149 83.5267C99.9959 83.5209 103.671 82.3033 104.379 81.537C104.629 81.266 104.656 81.0093 104.635 80.8417C104.582 80.4292 104.207 80.1767 104.164 80.1492C104.061 80.0832 103.923 80.1004 103.843 80.1929C103.763 80.2854 103.761 80.4205 103.842 80.5129C103.885 80.5684 103.91 80.6614 103.784 80.7878C103.501 81.0521 100.646 81.8544 95.8935 82.0955C95.2425 82.1293 94.5596 82.1465 93.864 82.1467C89.6088 82.1467 86.4946 81.5638 86.0857 81.2242C86.2433 80.9977 87.3449 80.636 88.5163 80.4314C88.6484 80.4084 88.7375 80.284 88.7171 80.1516C88.6966 80.0192 88.5746 79.9281 88.4412 79.9454C88.4081 79.9499 88.296 79.9566 88.1661 79.9646C86.2332 80.0826 83.9996 80.3456 83.883 81.3415C83.8476 81.645 83.9378 81.9205 84.1511 82.1603C84.6732 82.7468 86.1736 83.5266 93.1487 83.5266C93.1488 83.5267 93.1488 83.5267 93.149 83.5267Z" fill="#73A1FB"/>
<path d="M105.723 81.7527C105.627 81.708 105.512 81.7306 105.44 81.8085C105.43 81.8194 104.401 82.8958 101.306 83.5279C100.121 83.7653 97.8963 83.8857 94.6946 83.8857C91.4869 83.8857 88.4345 83.7595 88.4041 83.7582C88.2766 83.752 88.1676 83.8447 88.1502 83.9702C88.1328 84.0956 88.2137 84.2139 88.3368 84.2432C88.3685 84.2507 91.5674 85.0001 95.9411 85.0001C98.0388 85.0001 100.08 84.8298 102.008 84.4935C105.604 83.8632 105.855 82.0805 105.864 82.0049C105.877 81.8992 105.82 81.7975 105.723 81.7527Z" fill="#73A1FB"/>
</g>
<defs>
<filter id="filter0_d_1_1647" x="0" y="0" width="190" height="190" filterUnits="userSpaceOnUse" color-interpolation-filters="sRGB">
<feFlood flood-opacity="0" result="BackgroundImageFix"/>
<feColorMatrix in="SourceAlpha" type="matrix" values="0 0 0 0 0 0 0 0 0 0 0 0 0 0 0 0 0 0 127 0" result="hardAlpha"/>
<feOffset dy="25"/>
<feGaussianBlur stdDeviation="35"/>
<feColorMatrix type="matrix" values="0 0 0 0 0.0392157 0 0 0 0 0.0117647 0 0 0 0 0.235294 0 0 0 0.15 0"/>
<feBlend mode="normal" in2="BackgroundImageFix" result="effect1_dropShadow_1_1647"/>
<feBlend mode="normal" in="SourceGraphic" in2="effect1_dropShadow_1_1647" result="shape"/>
</filter>
<clipPath id="clip0_1_1647">
<rect width="30" height="30" fill="white" transform="translate(80 55)"/>
</clipPath>
</defs>
</svg>
