<svg width="190" height="190" viewBox="0 0 190 190" fill="none" xmlns="http://www.w3.org/2000/svg">
<g filter="url(#filter0_d_1_1624)">
<rect x="70" y="45" width="50" height="50" rx="5" fill="white"/>
</g>
<path d="M81.7578 55L83.6211 81.256L95.0117 85L106.402 81.256L108.266 55H81.7578Z" fill="#FF7816"/>
<path d="M108.266 55L106.402 81.256L95.0117 85V55H108.266Z" fill="#FF4B00"/>
<path d="M103.291 62.9688H90.2656L90.5819 67.3633H102.975L102.219 78.0038L95.0117 80.4121L87.8046 78.0038L87.5586 74.4531H91.0742L91.1445 75.4199L95.0117 76.703L98.8788 75.4199L99.1952 70.8789H87.2949L86.4863 59.4531H103.537L103.291 62.9688Z" fill="#ECECF1"/>
<path d="M102.975 67.3633L102.219 78.0038L95.0117 80.4121V76.703L98.8788 75.4199L99.1952 70.8789H95.0117V67.3633H102.975Z" fill="#E2E2E7"/>
<path d="M103.537 59.4531L103.291 62.9688H95.0117V59.4531H103.537Z" fill="#E2E2E7"/>
<defs>
<filter id="filter0_d_1_1624" x="0" y="0" width="190" height="190" filterUnits="userSpaceOnUse" color-interpolation-filters="sRGB">
<feFlood flood-opacity="0" result="BackgroundImageFix"/>
<feColorMatrix in="SourceAlpha" type="matrix" values="0 0 0 0 0 0 0 0 0 0 0 0 0 0 0 0 0 0 127 0" result="hardAlpha"/>
<feOffset dy="25"/>
<feGaussianBlur stdDeviation="35"/>
<feColorMatrix type="matrix" values="0 0 0 0 0.0392157 0 0 0 0 0.0117647 0 0 0 0 0.235294 0 0 0 0.15 0"/>
<feBlend mode="normal" in2="BackgroundImageFix" result="effect1_dropShadow_1_1624"/>
<feBlend mode="normal" in="SourceGraphic" in2="effect1_dropShadow_1_1624" result="shape"/>
</filter>
</defs>
</svg>
