<svg width="34" height="34" viewBox="0 0 34 34" fill="none" xmlns="http://www.w3.org/2000/svg">
<g clip-path="url(#clip0_1_1925)">
<path d="M25.0245 20.2741C24.1547 19.4044 23.1719 18.7044 22.1324 18.174C21.9678 18.0928 21.8294 17.9667 21.7331 17.8104C21.6368 17.6541 21.5865 17.4738 21.5879 17.2902L21.8708 14.787C18.9151 13.7405 15.2381 13.6698 12.1693 14.7446L12.3743 17.2972C12.3673 17.6861 12.1481 18.0185 11.8228 18.1882C10.7763 18.7114 9.80047 19.4185 8.93073 20.2883C8.54889 20.6701 7.9125 20.6701 7.53066 20.2883L5.08407 17.8417C4.70223 17.4599 4.41232 16.8305 4.94265 16.3002C11.5117 9.73119 22.4365 9.73826 28.9984 16.3002C29.5005 16.8023 29.253 17.4457 28.8641 17.8346L26.4246 20.2741C26.0427 20.656 25.4063 20.656 25.0245 20.2741Z" fill="white"/>
</g>
<defs>
<clipPath id="clip0_1_1925">
<rect width="24" height="24" fill="white" transform="matrix(0.707107 0.707107 0.707107 -0.707107 0 17.0002)"/>
</clipPath>
</defs>
</svg>
