<svg width="24" height="24" viewBox="0 0 24 24" fill="none" xmlns="http://www.w3.org/2000/svg">
<path d="M17 13.4101L12.71 9.17007C12.617 9.07634 12.5064 9.00194 12.3846 8.95117C12.2627 8.90041 12.132 8.87427 12 8.87427C11.868 8.87427 11.7373 8.90041 11.6154 8.95117C11.4936 9.00194 11.383 9.07634 11.29 9.17007L7.05001 13.4101C6.95628 13.503 6.88189 13.6136 6.83112 13.7355C6.78035 13.8573 6.75421 13.9881 6.75421 14.1201C6.75421 14.2521 6.78035 14.3828 6.83112 14.5046C6.88189 14.6265 6.95628 14.7371 7.05001 14.8301C7.23737 15.0163 7.49082 15.1209 7.75501 15.1209C8.0192 15.1209 8.27265 15.0163 8.46001 14.8301L12 11.2901L15.54 14.8301C15.7263 15.0148 15.9777 15.119 16.24 15.1201C16.3716 15.1208 16.5021 15.0956 16.6239 15.0458C16.7458 14.9961 16.8566 14.9227 16.95 14.8301C17.0471 14.7404 17.1254 14.6325 17.1805 14.5124C17.2357 14.3923 17.2664 14.2625 17.2711 14.1305C17.2757 13.9985 17.2542 13.8668 17.2076 13.7432C17.1611 13.6195 17.0905 13.5063 17 13.4101Z" fill="white"/>
</svg>
