<svg width="340" height="50" viewBox="0 0 340 50" fill="none" xmlns="http://www.w3.org/2000/svg">
<rect x="0.5" y="0.5" width="339" height="49" rx="9.5" fill="white" stroke="#DEDDE4"/>
<path d="M65.072 30.176C67.632 30.176 68.944 28.752 68.944 27.008C68.944 25.072 67.44 24.32 65.344 23.824C63.472 23.376 62.384 22.976 62.384 21.84C62.384 20.832 63.376 19.936 64.736 19.936C65.888 19.936 66.976 20.464 67.888 21.344L68.656 20.368C67.648 19.44 66.432 18.8 64.8 18.8C62.688 18.8 61.12 20.176 61.12 21.936C61.12 23.84 62.512 24.528 64.72 25.04C66.64 25.488 67.68 25.952 67.68 27.12C67.68 28.112 66.816 29.04 65.12 29.04C63.584 29.04 62.448 28.384 61.52 27.456L60.736 28.432C61.84 29.52 63.264 30.176 65.072 30.176ZM71.6205 20.224C72.0525 20.224 72.4045 19.856 72.4045 19.424C72.4045 19.008 72.0525 18.64 71.6205 18.64C71.1725 18.64 70.8205 19.008 70.8205 19.424C70.8205 19.856 71.1725 20.224 71.6205 20.224ZM71.0125 30H72.2125V21.728H71.0125V30ZM81.0543 21.728V23.152C80.4143 22.144 79.3583 21.536 78.0463 21.536C75.8223 21.536 74.2383 23.152 74.2383 25.456C74.2383 27.76 75.8223 29.392 78.0463 29.392C79.3583 29.392 80.4143 28.784 81.0543 27.776V29.12C81.0543 30.736 79.9343 31.68 78.0303 31.68C77.0063 31.68 76.0143 31.312 75.3743 30.704L74.8463 31.648C75.5983 32.288 76.8463 32.752 78.1903 32.752C80.5743 32.752 82.2543 31.248 82.2543 29.12V21.728H81.0543ZM78.2703 28.32C76.6543 28.32 75.5023 27.136 75.5023 25.456C75.5023 23.792 76.6543 22.608 78.2703 22.608C79.9023 22.608 81.0543 23.792 81.0543 25.456C81.0543 27.136 79.9023 28.32 78.2703 28.32ZM88.7301 21.536C87.5621 21.536 86.4901 22.176 86.0101 23.056V21.728H84.8101V30H86.0101V24.736C86.0101 23.584 87.1781 22.608 88.5701 22.608C89.7861 22.608 90.6341 23.552 90.6341 24.896V30H91.8341V24.736C91.8341 22.864 90.5541 21.536 88.7301 21.536ZM100.087 21.728V26.992C100.087 28.144 98.9189 29.12 97.5269 29.12C96.3109 29.12 95.4629 28.176 95.4629 26.832V21.728H94.2629V26.992C94.2629 28.864 95.5429 30.192 97.3669 30.192C98.5349 30.192 99.6069 29.552 100.087 28.672V30H101.287V21.728H100.087ZM108.052 21.536C106.724 21.536 105.668 22.192 105.044 23.28V21.728H103.844V32.752H105.044V28.448C105.668 29.536 106.724 30.192 108.052 30.192C110.228 30.192 111.86 28.4 111.86 25.856C111.86 23.328 110.228 21.536 108.052 21.536ZM107.828 29.12C106.196 29.12 105.044 27.76 105.044 25.856C105.044 23.952 106.196 22.608 107.828 22.608C109.444 22.608 110.596 23.952 110.596 25.856C110.596 27.76 109.444 29.12 107.828 29.12ZM120.687 30H121.823L124.047 23.392L126.239 30H127.375L130.159 21.728H128.879L126.815 28.4L124.559 21.728H123.519L121.263 28.4L119.199 21.728H117.919L120.687 30ZM132.496 20.224C132.928 20.224 133.28 19.856 133.28 19.424C133.28 19.008 132.928 18.64 132.496 18.64C132.048 18.64 131.696 19.008 131.696 19.424C131.696 19.856 132.048 20.224 132.496 20.224ZM131.888 30H133.088V21.728H131.888V30ZM139.129 28.784C138.953 28.976 138.633 29.12 138.265 29.12C137.785 29.12 137.369 28.688 137.369 28.08V22.8H139.401V21.728H137.369V19.456H136.169V21.728H134.873V22.8H136.169V28.08C136.169 29.312 137.001 30.192 138.185 30.192C138.745 30.192 139.289 30 139.721 29.664L139.129 28.784ZM145.355 21.536C144.187 21.536 143.115 22.176 142.635 23.056V18.816H141.435V30H142.635V24.736C142.635 23.584 143.803 22.608 145.195 22.608C146.411 22.608 147.259 23.552 147.259 24.896V30H148.459V24.736C148.459 22.864 147.179 21.536 145.355 21.536ZM161.961 21.728V23.152C161.321 22.144 160.265 21.536 158.953 21.536C156.729 21.536 155.145 23.152 155.145 25.456C155.145 27.76 156.729 29.392 158.953 29.392C160.265 29.392 161.321 28.784 161.961 27.776V29.12C161.961 30.736 160.841 31.68 158.937 31.68C157.913 31.68 156.921 31.312 156.281 30.704L155.753 31.648C156.505 32.288 157.753 32.752 159.097 32.752C161.481 32.752 163.161 31.248 163.161 29.12V21.728H161.961ZM159.177 28.32C157.561 28.32 156.409 27.136 156.409 25.456C156.409 23.792 157.561 22.608 159.177 22.608C160.809 22.608 161.961 23.792 161.961 25.456C161.961 27.136 160.809 28.32 159.177 28.32ZM169.54 30.192C171.86 30.192 173.812 28.208 173.812 25.856C173.812 23.504 171.86 21.536 169.54 21.536C167.22 21.536 165.252 23.504 165.252 25.856C165.252 28.208 167.22 30.192 169.54 30.192ZM169.54 29.12C167.892 29.12 166.516 27.632 166.516 25.856C166.516 24.096 167.892 22.608 169.54 22.608C171.172 22.608 172.548 24.096 172.548 25.856C172.548 27.632 171.172 29.12 169.54 29.12ZM179.634 30.192C181.954 30.192 183.906 28.208 183.906 25.856C183.906 23.504 181.954 21.536 179.634 21.536C177.314 21.536 175.346 23.504 175.346 25.856C175.346 28.208 177.314 30.192 179.634 30.192ZM179.634 29.12C177.986 29.12 176.61 27.632 176.61 25.856C176.61 24.096 177.986 22.608 179.634 22.608C181.266 22.608 182.642 24.096 182.642 25.856C182.642 27.632 181.266 29.12 179.634 29.12ZM192.32 21.728V23.152C191.68 22.144 190.624 21.536 189.312 21.536C187.088 21.536 185.504 23.152 185.504 25.456C185.504 27.76 187.088 29.392 189.312 29.392C190.624 29.392 191.68 28.784 192.32 27.776V29.12C192.32 30.736 191.2 31.68 189.296 31.68C188.272 31.68 187.28 31.312 186.64 30.704L186.112 31.648C186.864 32.288 188.112 32.752 189.456 32.752C191.84 32.752 193.52 31.248 193.52 29.12V21.728H192.32ZM189.536 28.32C187.92 28.32 186.768 27.136 186.768 25.456C186.768 23.792 187.92 22.608 189.536 22.608C191.168 22.608 192.32 23.792 192.32 25.456C192.32 27.136 191.168 28.32 189.536 28.32ZM196.06 30H197.26V18.816H196.06V30ZM203.413 29.12C201.781 29.12 200.645 27.936 200.469 26.32H207.237C207.237 23.424 205.813 21.536 203.317 21.536C201.093 21.536 199.237 23.376 199.237 25.84C199.237 28.384 201.221 30.192 203.429 30.192C204.581 30.192 206.037 29.696 206.757 28.912L206.021 28.128C205.509 28.688 204.389 29.12 203.413 29.12ZM203.365 22.608C205.013 22.608 205.893 23.76 206.053 25.248H200.485C200.709 23.648 201.893 22.608 203.365 22.608Z" fill="#5D5A6F"/>
<rect x="5" y="5" width="40" height="40" rx="7" fill="#E93E30"/>
<g clip-path="url(#clip0_1_2590)">
<path d="M34.8227 22H32.6357V24.177H30.4587V26.364H32.6357V28.541H34.8227V26.364H36.9997V24.177H34.8227V22Z" fill="white"/>
<path d="M20.5 32.5C24.828 32.5 27.703 29.462 27.703 25.174C27.703 24.683 27.652 24.304 27.581 23.926H20.501V26.504H24.758C24.584 27.599 23.469 29.737 20.501 29.737C17.944 29.737 15.856 27.619 15.856 25C15.856 22.381 17.943 20.262 20.501 20.262C21.964 20.262 22.936 20.886 23.489 21.418L25.525 19.464C24.214 18.237 22.526 17.5 20.5 17.5C16.356 17.5 13 20.856 13 25C13 29.144 16.356 32.5 20.5 32.5Z" fill="white"/>
</g>
<defs>
<clipPath id="clip0_1_2590">
<rect width="24" height="24" fill="white" transform="translate(13 13)"/>
</clipPath>
</defs>
</svg>
